{"id":"654cd3aa-eb1b-427a-bca2-8d33224dc0ca", "recipient":"6d0100cc-6ef4-4462-840a-81e15521927e", "sender":"6d0100cc-6ef4-4462-840a-81e15521927e/task-1202", "priority":"MESSAGE_PRIORITY_HIGH", "timestamp":"2026-05-23T03:06:02.982465300Z", "renderDetails":{"messageTitle":"Regenerating video finished"}, "content":"Task id \"6d0100cc-6ef4-4462-840a-81e15521927e/task-1202\" finished with result:\n\n\t\t\t\tThe command completed successfully.\n\t\t\t\tOutput:\n\t\t\t\tStarting local HTTP server...\nLaunching browser...\nNavigating to http://localhost:8082...\nOptimizing layout for Shorts...\nStarting screen recording simulation (screenshots)...\nSpinning the wheel...\nRecording finished. Closing browser and server...\nCompiling video using FFmpeg...\nffmpeg version 8.1-full_build-www.gyan.dev Copyright (c) 2000-2026 the FFmpeg developers\r\n  built with gcc 15.2.0 (Rev11, Built by MSYS2 project)\r\n  configuration: --enable-gpl --enable-version3 --enable-static --disable-w32threads --disable-autodetect --enable-cairo --enable-fontconfig --enable-iconv --enable-gnutls --enable-lcms2 --enable-libxml2 --enable-gmp --enable-bzlib --enable-lzma --enable-libsnappy --enable-zlib --enable-librist --enable-libsrt --enable-libssh --enable-libzmq --enable-avisynth --enable-libbluray --enable-libcaca --enable-libdvdnav --enable-libdvdread --enable-sdl2 --enable-libaribb24 --enable-libaribcaption --enable-libdav1d --enable-libdavs2 --enable-libopenjpeg --enable-libquirc --enable-libuavs3d --enable-libxevd --enable-libzvbi --enable-liboapv --enable-libqrencode --enable-librav1e --enable-libsvtav1 --enable-libvvenc --enable-libwebp --enable-libx264 --enable-libx265 --enable-libxavs2 --enable-libxeve --enable-libxvid --enable-libaom --enable-libjxl --enable-libsvtjpegxs --enable-libvpx --enable-mediafoundation --enable-libass --enable-frei0r --enable-libfreetype --enable-libfribidi --enable-libharfbuzz --enable-liblensfun --enable-libvidstab --enable-libvmaf --enable-libzimg --enable-amf --enable-cuda-llvm --enable-cuvid --enable-dxva2 --enable-d3d11va --enable-d3d12va --enable-ffnvcodec --enable-libvpl --enable-nvdec --enable-nvenc --enable-vaapi --enable-libshaderc --enable-vulkan --enable-libplacebo --enable-opencl --enable-libcdio --enable-openal --enable-libgme --enable-libmodplug --enable-libopenmpt --enable-libopencore-amrwb --enable-libmp3lame --enable-libshine --enable-libtheora --enable-libtwolame --enable-libvo-amrwbenc --enable-libcodec2 --enable-libilbc --enable-libgsm --enable-liblc3 --enable-libopencore-amrnb --enable-libopus --enable-libspeex --enable-libvorbis --enable-ladspa --enable-libbs2b --enable-libflite --enable-libmysofa --enable-librubberband --enable-libsoxr --enable-chromaprint --enable-whisper\r\n  libavutil      60. 26.100 / 60. 26.100\r\n  libavcodec     62. 28.100 / 62. 28.100\r\n  libavformat    62. 12.100 / 62. 12.100\r\n  libavdevice    62.  3.100 / 62.  3.100\r\n  libavfilter    11. 14.100 / 11. 14.100\r\n  libswscale      9.  5.100 /  9.  5.100\r\n  libswresample   6.  3.100 /  6.  3.100\r\nInput #0, image2, from 'C:\\Users\\smile\\snack-picker\\temp_frames\\frame_%04d.png':\r\n  Duration: 00:00:09.50, start: 0.000000, bitrate: N/A\r\n  Stream #0:0: Video: png, rgb24(pc, gbr/unknown/unknown), 1080x1920, 30 fps, 30 tbr, 30 tbn\r\nStream mapping:\r\n  Stream #0:0 -> #0:0 (png (native) -> h264 (libx264))\r\nPress [q] to stop, [?] for help\r\n[libx264 @ 000001d0fcfbc600] using cpu capabilities: MMX2 SSE2Fast SSSE3 SSE4.2 AVX FMA3 BMI2 AVX2\r\n[libx264 @ 000001d0fcfbc600] profile High, level 4.0, 4:2:0, 8-bit\r\n[libx264 @ 000001d0fcfbc600] 264 - core 165 r3223 0480cb0 - H.264/MPEG-4 AVC codec - Copyleft 2003-2025 - http://www.videolan.org/x264.html - options: cabac=1 ref=3 deblock=1:0:0 analyse=0x3:0x113 me=hex subme=7 psy=1 psy_rd=1.00:0.00 mixed_ref=1 me_range=16 chroma_me=1 trellis=1 8x8dct=1 cqm=0 deadzone=21,11 fast_pskip=1 chroma_qp_offset=-2 threads=18 lookahead_threads=3 sliced_threads=0 nr=0 decimate=1 interlaced=0 bluray_compat=0 constrained_intra=0 bframes=3 b_pyramid=2 b_adapt=1 b_bias=0 direct=1 weightb=1 open_gop=0 weightp=2 keyint=250 keyint_min=25 scenecut=40 intra_refresh=0 rc_lookahead=40 rc=crf mbtree=1 crf=23.0 qcomp=0.60 qpmin=0 qpmax=69 qpstep=4 ip_ratio=1.40 aq=1:1.00\r\nOutput #0, mp4, to 'C:\\Users\\smile\\snack-picker\\shorts.mp4':\r\n  Metadata:\r\n    encoder         : Lavf62.12.100\r\n  Stream #0:0: Video: h264 (avc1 / 0x31637661), yuv420p(tv, progressive), 1080x1920, q=2-31, 30 fps, 15360 tbn\r\n    Metadata:\r\n      encoder         : Lavc62.28.100 libx264\r\n    Side data:\r\n      CPB properties: bitrate max/min/avg: 0/0/0 buffer size: 0 vbv_delay: N/A\r\nframe=    8 fps=0.0 q=29.0 size=       0KiB time=00:00:00.20 bitrate=   1.9kbits/s speed=0.388x elapsed=0:00:00.51    \rframe=   71 fps= 69 q=29.0 size=       0KiB time=00:00:02.30 bitrate=   0.2kbits/s speed=2.25x elapsed=0:00:01.02    \rframe=  137 fps= 89 q=29.0 size=       0KiB time=00:00:04.50 bitrate=   0.1kbits/s speed=2.92x elapsed=0:00:01.54    \rframe=  202 fps= 99 q=29.0 size=       0KiB time=00:00:06.66 bitrate=   0.1kbits/s speed=3.25x elapsed=0:00:02.04    \r[out#0/mp4 @ 000001d0fce08640] video:251KiB audio:0KiB subtitle:0KiB other streams:0KiB global headers:0KiB muxing overhead: 1.627020%\r\nframe=  285 fps=127 q=-1.0 Lsize=     255KiB time=00:00:09.43 bitrate= 221.3kbits/s speed= 4.2x elapsed=0:00:02.24    \r\n[libx264 @ 000001d0fcfbc600] frame I:3     Avg QP:18.09  size: 40970\r\n[libx264 @ 000001d0fcfbc600] frame P:84    Avg QP:16.29  size:  1208\r\n[libx264 @ 000001d0fcfbc600] frame B:198   Avg QP:21.61  size:   160\r\n[libx264 @ 000001d0fcfbc600] consecutive B-frames:  6.7%  2.1%  0.0% 91.2%\r\n[libx264 @ 000001d0fcfbc600] mb I  I16..4: 22.8% 65.4% 11.9%\r\n[libx264 @ 000001d0fcfbc600] mb P  I16..4:  0.6%  1.3%  0.2%  P16..4:  0.8%  0.1%  0.1%  0.0%  0.0%    skip:96.9%\r\n[libx264 @ 000001d0fcfbc600] mb B  I16..4:  0.1%  0.0%  0.0%  B16..8:  0.6%  0.0%  0.0%  direct: 0.0%  skip:99.3%  L0:65.0% L1:33.5% BI: 1.6%\r\n[libx264 @ 000001d0fcfbc600] 8x8 transform intra:63.0% inter:48.6%\r\n[libx264 @ 000001d0fcfbc600] coded y,uvDC,uvAC intra: 10.5% 24.0% 12.2% inter: 0.1% 0.2% 0.0%\r\n[libx264 @ 000001d0fcfbc600] i16 v,h,dc,p: 53% 37%  4%  7%\r\n[libx264 @ 000001d0fcfbc600] i8 v,h,dc,ddl,ddr,vr,hd,vl,hu: 38% 21% 35%  1%  1%  1%  1%  1%  1%\r\n[libx264 @ 000001d0fcfbc600] i4 v,h,dc,ddl,ddr,vr,hd,vl,hu: 36% 28% 13%  4%  5%  4%  5%  3%  4%\r\n[libx264 @ 000001d0fcfbc600] i8c dc,h,v,p: 70% 17% 11%  2%\r\n[libx264 @ 000001d0fcfbc600] Weighted P-Frames: Y:1.2% UV:1.2%\r\n[libx264 @ 000001d0fcfbc600] ref P L0: 85.4%  0.9% 12.1%  1.5%\r\n[libx264 @ 000001d0fcfbc600] ref B L0: 28.3% 71.6%  0.2%\r\n[libx264 @ 000001d0fcfbc600] ref B L1: 97.6%  2.4%\r\n[libx264 @ 000001d0fcfbc600] kb/s:215.61\r\n\nSuccess! Video generated successfully at: C:\\Users\\smile\\snack-picker\\shorts.mp4\nCleaning up temporary frames...\n\n\nLog: file:///C:/Users/smile/.gemini/antigravity/brain/6d0100cc-6ef4-4462-840a-81e15521927e/.system_generated/tasks/task-1202.log", "sourceMetadata":{"tool":{"conversationId":"6d0100cc-6ef4-4462-840a-81e15521927e", "stepIndex":1202, "toolCall":{"id":"vwc87s5t", "name":"run_command", "argumentsJson":"{\"CommandLine\":\"node record_shorts.js\",\"Cwd\":\"C:\\\\Users\\\\smile\\\\snack-picker\",\"WaitMsBeforeAsync\":10000,\"toolAction\":\"Regenerate shorts video\",\"toolSummary\":\"Regenerating video\"}", "thinkingSignature":"EqcCCqQCAQw51seyCpG1ldqf5ws9o6JDG1m5xmEBK5n9DC2fvPYp3/92LA6T8TbPcZe2HQPZbJwgtGghibu+Q5pYlI4wdKdHN9jUkCWCwYb4ZuDoRRFFN7rOhAGkQil3as4ZM5GvzNfK+81rU1B1BJztnrweVnOps3EgNV9e1DHoOVdwvy5+hERVgjfoVGU3wNPySJ5cf/qV59uMLAFQC1lgTUnIzsMHZCQtEY/Ls7SM3XImk+My1u0xmJchuZxrz+FQUyWA16nhmbsu0QXcZNCoLIFvjKZufqzYBZ40UKU4ZO3AN5i8kVDVgkVUTMlmciIHd+Fdr/kS0KbDPZGhN7lWYmjaTTpXZNpr4JssPcJ5ei1o+obuPWXYQcoDa/KCZts6fmYn5HsQAA==", "originalName":"run_command"}}}}